#format: frame checksums
#version: 2
#hash: MD5
#tb 0: 1001/30000
#media_type 0: video
#codec_id 0: rawvideo
#dimensions 0: 16x34
#sar 0: 1/1
#stream#, dts,        pts, duration,     size, hash
0,          0,          0,        1,      816, b8bf711d9a1ce49180ed56407c8a4b0a
0,          1,          1,        1,      816, 0457929b06ce46aec63d66bd38586e3f
0,          2,          2,        1,      816, 3b5f417ee5a936797a6f0d138b8ed73b
0,          3,          3,        1,      816, 5d1a42aeecfd5c8513cb2df94c206c8b
0,          4,          4,        1,      816, a0ab2dddbc810a1667d779f6ed69d010
0,          5,          5,        1,      816, b150cd7c4ec83e6f9d948e99d7465350
0,          6,          6,        1,      816, ea39622ad21312bd8bcecdaf09aa18fb
0,          7,          7,        1,      816, 467a42e1226a01c8ba244f312f588bab
0,          8,          8,        1,      816, f2311e15228ffc7fd377b89c203d0fbf
0,          9,          9,        1,      816, 5df58b3ac0a7856796a46f27be7dcf4c
